P3

55 50
255
182 182 182
184 184 184
184 184 184
188 188 188
192 192 192
190 190 190
183 183 183
182 182 182
175 175 175
171 171 171
175 175 175
179 179 179
176 176 176
171 171 171
165 165 165
174 174 174
176 176 176
182 182 182
179 179 179
162 162 162
161 161 161
163 163 163
157 157 157
155 155 155
155 155 155
158 158 158
157 157 157
159 159 159
162 162 162
161 161 161
159 159 159
161 161 161
161 161 161
162 162 162
160 160 160
162 162 162
160 160 160
164 164 164
167 167 167
166 166 166
166 166 166
163 163 163
162 162 162
158 158 158
157 157 157
157 157 157
158 158 158
161 161 161
163 163 163
168 168 168
170 170 170
167 167 167
166 166 166
171 171 171
171 171 171
178 178 178
181 181 181
181 181 181
182 182 182
188 188 188
188 188 188
181 181 181
182 182 182
181 181 181
174 174 174
176 176 176
180 180 180
184 184 184
184 184 184
183 183 183
186 186 186
180 180 180
185 185 185
171 171 171
166 166 166
166 166 166
175 175 175
163 163 163
160 160 160
155 155 155
150 150 150
152 152 152
161 161 161
159 159 159
158 158 158
160 160 160
157 157 157
155 155 155
156 156 156
159 159 159
163 163 163
163 163 163
165 165 165
165 165 165
164 164 164
163 163 163
163 163 163
167 167 167
158 158 158
153 153 153
162 162 162
167 167 167
168 168 168
175 175 175
178 178 178
177 177 177
176 176 176
176 176 176
177 177 177
174 174 174
179 179 179
180 180 180
179 179 179
176 176 176
176 176 176
177 177 177
177 177 177
178 178 178
180 180 180
176 176 176
174 174 174
175 175 175
179 179 179
178 178 178
179 179 179
183 183 183
177 177 177
174 174 174
169 169 169
169 169 169
168 168 168
167 167 167
162 162 162
161 161 161
158 158 158
162 162 162
166 166 166
162 162 162
159 159 159
158 158 158
160 160 160
158 158 158
155 155 155
159 159 159
162 162 162
163 163 163
165 165 165
165 165 165
165 165 165
164 164 164
162 162 162
159 159 159
157 157 157
157 157 157
154 154 154
159 159 159
174 174 174
180 180 180
177 177 177
174 174 174
175 175 175
178 178 178
176 176 176
176 176 176
172 172 172
193 193 193
193 193 193
186 186 186
181 181 181
176 176 176
177 177 177
177 177 177
184 184 184
188 188 188
185 185 185
181 181 181
182 182 182
179 179 179
174 174 174
178 178 178
179 179 179
175 175 175
174 174 174
169 169 169
169 169 169
172 172 172
170 170 170
165 165 165
169 169 169
171 171 171
175 175 175
180 180 180
178 178 178
172 172 172
170 170 170
165 165 165
163 163 163
174 174 174
176 176 176
170 170 170
173 173 173
174 174 174
168 168 168
164 164 164
163 163 163
161 161 161
158 158 158
155 155 155
154 154 154
154 154 154
162 162 162
176 176 176
177 177 177
169 169 169
168 168 168
169 169 169
174 174 174
170 170 170
168 168 168
168 168 168
193 193 193
192 192 192
190 190 190
188 188 188
183 183 183
181 181 181
182 182 182
191 191 191
194 194 194
189 189 189
189 189 189
186 186 186
184 184 184
180 180 180
182 182 182
184 184 184
181 181 181
178 178 178
184 184 184
185 185 185
181 181 181
176 176 176
176 176 176
177 177 177
175 175 175
184 184 184
190 190 190
193 193 193
188 188 188
184 184 184
175 175 175
174 174 174
177 177 177
179 179 179
186 186 186
190 190 190
185 185 185
181 181 181
169 169 169
166 166 166
166 166 166
164 164 164
166 166 166
172 172 172
180 180 180
183 183 183
173 173 173
164 164 164
168 168 168
168 168 168
167 167 167
168 168 168
164 164 164
166 166 166
164 164 164
185 185 185
186 186 186
183 183 183
183 183 183
183 183 183
188 188 188
193 193 193
193 193 193
197 197 197
195 195 195
194 194 194
194 194 194
191 191 191
191 191 191
192 192 192
188 188 188
187 187 187
190 190 190
192 192 192
196 196 196
190 190 190
187 187 187
185 185 185
185 185 185
178 178 178
181 181 181
186 186 186
185 185 185
187 187 187
185 185 185
182 182 182
179 179 179
184 184 184
185 185 185
188 188 188
191 191 191
186 186 186
189 189 189
178 178 178
173 173 173
172 172 172
176 176 176
187 187 187
194 194 194
192 192 192
181 181 181
166 166 166
167 167 167
166 166 166
165 165 165
167 167 167
166 166 166
164 164 164
162 162 162
162 162 162
187 187 187
187 187 187
190 190 190
191 191 191
189 189 189
197 197 197
199 199 199
196 196 196
199 199 199
202 202 202
198 198 198
198 198 198
199 199 199
198 198 198
190 190 190
189 189 189
193 193 193
195 195 195
193 193 193
198 198 198
196 196 196
197 197 197
194 194 194
191 191 191
193 193 193
197 197 197
194 194 194
191 191 191
194 194 194
188 188 188
187 187 187
189 189 189
194 194 194
193 193 193
185 185 185
188 188 188
186 186 186
192 192 192
192 192 192
190 190 190
189 189 189
191 191 191
188 188 188
183 183 183
178 178 178
165 165 165
162 162 162
163 163 163
162 162 162
164 164 164
163 163 163
162 162 162
160 160 160
160 160 160
161 161 161
185 185 185
187 187 187
191 191 191
190 190 190
188 188 188
187 187 187
189 189 189
189 189 189
192 192 192
194 194 194
196 196 196
193 193 193
190 190 190
189 189 189
191 191 191
194 194 194
187 187 187
188 188 188
188 188 188
192 192 192
196 196 196
196 196 196
197 197 197
195 195 195
194 194 194
196 196 196
193 193 193
194 194 194
195 195 195
198 198 198
197 197 197
190 190 190
189 189 189
194 194 194
188 188 188
190 190 190
183 183 183
181 181 181
177 177 177
175 175 175
177 177 177
176 176 176
174 174 174
181 181 181
178 178 178
168 168 168
170 170 170
162 162 162
163 163 163
161 161 161
160 160 160
156 156 156
155 155 155
156 156 156
157 157 157
175 175 175
179 179 179
180 180 180
180 180 180
179 179 179
178 178 178
180 180 180
182 182 182
181 181 181
181 181 181
183 183 183
182 182 182
184 184 184
181 181 181
183 183 183
181 181 181
178 178 178
178 178 178
180 180 180
182 182 182
183 183 183
184 184 184
187 187 187
191 191 191
191 191 191
196 196 196
193 193 193
132 132 132
69 69 69
149 149 149
188 188 188
184 184 184
183 183 183
186 186 186
185 185 185
183 183 183
180 180 180
176 176 176
175 175 175
175 175 175
176 176 176
172 172 172
169 169 169
177 177 177
182 182 182
180 180 180
175 175 175
167 167 167
161 161 161
162 162 162
161 161 161
156 156 156
154 154 154
153 153 153
158 158 158
173 173 173
175 175 175
175 175 175
177 177 177
176 176 176
176 176 176
177 177 177
178 178 178
176 176 176
177 177 177
178 178 178
177 177 177
176 176 176
176 176 176
174 174 174
172 172 172
172 172 172
172 172 172
174 174 174
179 179 179
178 178 178
181 181 181
182 182 182
186 186 186
189 189 189
192 192 192
156 156 156
34 34 34
29 29 29
36 36 36
144 144 144
178 178 178
177 177 177
176 176 176
177 177 177
179 179 179
175 175 175
172 172 172
171 171 171
172 172 172
168 168 168
164 164 164
163 163 163
167 167 167
174 174 174
172 172 172
172 172 172
165 165 165
153 153 153
153 153 153
143 143 143
146 146 146
153 153 153
153 153 153
153 153 153
173 173 173
175 175 175
175 175 175
176 176 176
176 176 176
176 176 176
177 177 177
180 180 180
181 181 181
180 180 180
179 179 179
179 179 179
179 179 179
177 177 177
174 174 174
172 172 172
171 171 171
172 172 172
174 174 174
175 175 175
175 175 175
181 181 181
185 185 185
184 184 184
183 183 183
167 167 167
48 48 48
33 33 33
30 30 30
32 32 32
40 40 40
154 154 154
185 185 185
178 178 178
177 177 177
176 176 176
173 173 173
172 172 172
171 171 171
167 167 167
164 164 164
163 163 163
164 164 164
167 167 167
170 170 170
169 169 169
164 164 164
158 158 158
153 153 153
153 153 153
152 152 152
152 152 152
152 152 152
153 153 153
151 151 151
172 172 172
173 173 173
176 176 176
177 177 177
177 177 177
178 178 178
181 181 181
184 184 184
184 184 184
182 182 182
183 183 183
183 183 183
183 183 183
181 181 181
177 177 177
175 175 175
173 173 173
175 175 175
178 178 178
176 176 176
177 177 177
181 181 181
184 184 184
185 185 185
174 174 174
75 75 75
39 39 39
38 38 38
37 37 37
35 35 35
37 37 37
51 51 51
159 159 159
186 186 186
190 190 190
187 187 187
184 184 184
183 183 183
175 175 175
168 168 168
168 168 168
167 167 167
168 168 168
168 168 168
169 169 169
164 164 164
159 159 159
156 156 156
157 157 157
159 159 159
158 158 158
157 157 157
154 154 154
157 157 157
150 150 150
172 172 172
174 174 174
176 176 176
178 178 178
177 177 177
177 177 177
179 179 179
181 181 181
180 180 180
180 180 180
180 180 180
180 180 180
179 179 179
178 178 178
172 172 172
172 172 172
170 170 170
175 175 175
179 179 179
175 175 175
176 176 176
181 181 181
184 184 184
183 183 183
88 88 88
43 43 43
37 37 37
37 37 37
40 40 40
39 39 39
38 38 38
37 37 37
53 53 53
174 174 174
197 197 197
190 190 190
190 190 190
183 183 183
174 174 174
169 169 169
172 172 172
174 174 174
174 174 174
171 171 171
162 162 162
157 157 157
155 155 155
156 156 156
159 159 159
157 157 157
154 154 154
153 153 153
157 157 157
150 150 150
141 141 141
174 174 174
174 174 174
175 175 175
176 176 176
175 175 175
174 174 174
176 176 176
177 177 177
175 175 175
176 176 176
175 175 175
175 175 175
173 173 173
173 173 173
171 171 171
171 171 171
170 170 170
173 173 173
172 172 172
172 172 172
174 174 174
179 179 179
183 183 183
110 110 110
46 46 46
45 45 45
37 37 37
39 39 39
40 40 40
42 42 42
46 46 46
45 45 45
43 43 43
62 62 62
172 172 172
182 182 182
191 191 191
190 190 190
181 181 181
179 179 179
181 181 181
181 181 181
181 181 181
168 168 168
159 159 159
161 161 161
150 150 150
144 144 144
143 143 143
145 145 145
152 152 152
149 149 149
150 150 150
141 141 141
139 139 139
172 172 172
173 173 173
176 176 176
176 176 176
176 176 176
175 175 175
177 177 177
178 178 178
175 175 175
174 174 174
174 174 174
173 173 173
172 172 172
171 171 171
171 171 171
171 171 171
171 171 171
172 172 172
173 173 173
173 173 173
172 172 172
177 177 177
129 129 129
45 45 45
49 49 49
41 41 41
40 40 40
41 41 41
37 37 37
45 45 45
45 45 45
45 45 45
45 45 45
43 43 43
64 64 64
161 161 161
179 179 179
182 182 182
175 175 175
181 181 181
192 192 192
185 185 185
177 177 177
154 154 154
147 147 147
143 143 143
141 141 141
140 140 140
140 140 140
147 147 147
157 157 157
156 156 156
149 149 149
140 140 140
141 141 141
171 171 171
174 174 174
175 175 175
175 175 175
174 174 174
175 175 175
177 177 177
178 178 178
175 175 175
174 174 174
172 172 172
173 173 173
171 171 171
170 170 170
171 171 171
172 172 172
172 172 172
173 173 173
174 174 174
173 173 173
172 172 172
147 147 147
58 58 58
58 58 58
48 48 48
48 48 48
46 46 46
43 43 43
45 45 45
41 41 41
45 45 45
47 47 47
40 40 40
45 45 45
50 50 50
73 73 73
162 162 162
167 167 167
170 170 170
177 177 177
185 185 185
187 187 187
176 176 176
162 162 162
153 153 153
146 146 146
144 144 144
148 148 148
157 157 157
166 166 166
157 157 157
148 148 148
152 152 152
155 155 155
153 153 153
161 161 161
165 165 165
173 173 173
172 172 172
171 171 171
175 175 175
178 178 178
181 181 181
181 181 181
178 178 178
172 172 172
171 171 171
171 171 171
171 171 171
173 173 173
172 172 172
173 173 173
174 174 174
175 175 175
173 173 173
160 160 160
63 63 63
60 60 60
50 50 50
51 51 51
48 48 48
45 45 45
46 46 46
44 44 44
51 51 51
45 45 45
46 46 46
51 51 51
49 49 49
50 50 50
56 56 56
90 90 90
164 164 164
168 168 168
176 176 176
171 171 171
172 172 172
174 174 174
165 165 165
160 160 160
152 152 152
149 149 149
155 155 155
161 161 161
153 153 153
148 148 148
148 148 148
151 151 151
150 150 150
157 157 157
168 168 168
168 168 168
173 173 173
172 172 172
174 174 174
174 174 174
184 184 184
180 180 180
173 173 173
172 172 172
172 172 172
167 167 167
167 167 167
171 171 171
173 173 173
173 173 173
174 174 174
176 176 176
175 175 175
169 169 169
71 71 71
44 44 44
39 39 39
24 24 24
40 40 40
37 37 37
43 43 43
49 49 49
48 48 48
47 47 47
48 48 48
46 46 46
44 44 44
51 51 51
51 51 51
54 54 54
35 35 35
144 144 144
163 163 163
164 164 164
163 163 163
161 161 161
159 159 159
158 158 158
153 153 153
151 151 151
153 153 153
159 159 159
155 155 155
154 154 154
152 152 152
151 151 151
151 151 151
150 150 150
148 148 148
184 184 184
185 185 185
189 189 189
190 190 190
189 189 189
193 193 193
198 198 198
192 192 192
176 176 176
169 169 169
165 165 165
159 159 159
163 163 163
164 164 164
164 164 164
166 166 166
173 173 173
175 175 175
176 176 176
96 96 96
42 42 42
44 44 44
37 37 37
36 36 36
41 41 41
41 41 41
34 34 34
32 32 32
34 34 34
40 40 40
46 46 46
48 48 48
61 61 61
56 56 56
56 56 56
54 54 54
38 38 38
55 55 55
150 150 150
158 158 158
157 157 157
158 158 158
157 157 157
152 152 152
148 148 148
148 148 148
151 151 151
162 162 162
161 161 161
164 164 164
157 157 157
158 158 158
153 153 153
149 149 149
149 149 149
201 201 201
200 200 200
199 199 199
199 199 199
199 199 199
200 200 200
199 199 199
195 195 195
167 167 167
160 160 160
158 158 158
159 159 159
158 158 158
158 158 158
161 161 161
162 162 162
168 168 168
172 172 172
156 156 156
47 47 47
44 44 44
51 51 51
41 41 41
46 46 46
49 49 49
51 51 51
49 49 49
47 47 47
44 44 44
41 41 41
39 39 39
40 40 40
34 34 34
43 43 43
42 42 42
38 38 38
36 36 36
38 38 38
61 61 61
143 143 143
157 157 157
156 156 156
153 153 153
149 149 149
148 148 148
147 147 147
149 149 149
153 153 153
150 150 150
149 149 149
149 149 149
150 150 150
145 145 145
144 144 144
140 140 140
198 198 198
200 200 200
198 198 198
197 197 197
195 195 195
192 192 192
195 195 195
197 197 197
171 171 171
162 162 162
160 160 160
162 162 162
161 161 161
163 163 163
164 164 164
169 169 169
174 174 174
180 180 180
66 66 66
51 51 51
58 58 58
45 45 45
49 49 49
55 55 55
56 56 56
57 57 57
55 55 55
56 56 56
52 52 52
49 49 49
53 53 53
55 55 55
54 54 54
51 51 51
48 48 48
44 44 44
50 50 50
55 55 55
52 52 52
63 63 63
140 140 140
144 144 144
145 145 145
149 149 149
151 151 151
152 152 152
149 149 149
150 150 150
148 148 148
145 145 145
144 144 144
142 142 142
141 141 141
145 145 145
151 151 151
196 196 196
197 197 197
199 199 199
196 196 196
194 194 194
190 190 190
192 192 192
199 199 199
183 183 183
170 170 170
169 169 169
167 167 167
169 169 169
172 172 172
179 179 179
187 187 187
190 190 190
121 121 121
54 54 54
62 62 62
47 47 47
49 49 49
53 53 53
58 58 58
62 62 62
61 61 61
59 59 59
57 57 57
59 59 59
55 55 55
54 54 54
56 56 56
56 56 56
57 57 57
61 61 61
63 63 63
64 64 64
58 58 58
56 56 56
55 55 55
70 70 70
139 139 139
143 143 143
146 146 146
148 148 148
145 145 145
144 144 144
143 143 143
143 143 143
143 143 143
145 145 145
152 152 152
153 153 153
161 161 161
161 161 161
194 194 194
195 195 195
196 196 196
200 200 200
203 203 203
197 197 197
195 195 195
200 200 200
197 197 197
178 178 178
176 176 176
177 177 177
182 182 182
190 190 190
197 197 197
201 201 201
153 153 153
55 55 55
59 59 59
62 62 62
45 45 45
52 52 52
55 55 55
59 59 59
65 65 65
63 63 63
64 64 64
60 60 60
62 62 62
63 63 63
62 62 62
59 59 59
62 62 62
64 64 64
58 58 58
60 60 60
61 61 61
59 59 59
52 52 52
57 57 57
54 54 54
74 74 74
143 143 143
148 148 148
147 147 147
145 145 145
144 144 144
143 143 143
147 147 147
150 150 150
154 154 154
166 166 166
172 172 172
165 165 165
166 166 166
195 195 195
195 195 195
195 195 195
198 198 198
200 200 200
201 201 201
199 199 199
197 197 197
196 196 196
200 200 200
199 199 199
201 201 201
202 202 202
202 202 202
201 201 201
176 176 176
64 64 64
58 58 58
65 65 65
55 55 55
51 51 51
53 53 53
64 64 64
64 64 64
63 63 63
67 67 67
62 62 62
61 61 61
67 67 67
64 64 64
65 65 65
62 62 62
61 61 61
65 65 65
66 66 66
65 65 65
61 61 61
63 63 63
59 59 59
58 58 58
58 58 58
54 54 54
88 88 88
145 145 145
145 145 145
146 146 146
147 147 147
150 150 150
154 154 154
161 161 161
168 168 168
176 176 176
171 171 171
161 161 161
160 160 160
197 197 197
196 196 196
196 196 196
197 197 197
201 201 201
201 201 201
201 201 201
202 202 202
202 202 202
199 199 199
198 198 198
199 199 199
198 198 198
198 198 198
194 194 194
81 81 81
62 62 62
63 63 63
63 63 63
52 52 52
63 63 63
63 63 63
66 66 66
62 62 62
72 72 72
69 69 69
69 69 69
75 75 75
72 72 72
70 70 70
67 67 67
74 74 74
67 67 67
72 72 72
73 73 73
78 78 78
81 81 81
78 78 78
74 74 74
71 71 71
63 63 63
62 62 62
52 52 52
100 100 100
146 146 146
145 145 145
151 151 151
159 159 159
167 167 167
169 169 169
173 173 173
170 170 170
162 162 162
160 160 160
162 162 162
196 196 196
197 197 197
197 197 197
199 199 199
200 200 200
201 201 201
201 201 201
200 200 200
200 200 200
198 198 198
197 197 197
197 197 197
195 195 195
184 184 184
105 105 105
76 76 76
61 61 61
61 61 61
44 44 44
54 54 54
59 59 59
69 69 69
71 71 71
77 77 77
76 76 76
78 78 78
83 83 83
84 84 84
79 79 79
81 81 81
80 80 80
81 81 81
84 84 84
81 81 81
79 79 79
68 68 68
62 62 62
68 68 68
65 65 65
69 69 69
70 70 70
69 69 69
64 64 64
61 61 61
78 78 78
147 147 147
157 157 157
160 160 160
169 169 169
182 182 182
176 176 176
171 171 171
173 173 173
176 176 176
163 163 163
196 196 196
197 197 197
198 198 198
198 198 198
198 198 198
199 199 199
200 200 200
199 199 199
199 199 199
198 198 198
196 196 196
197 197 197
188 188 188
88 88 88
66 66 66
61 61 61
57 57 57
48 48 48
54 54 54
59 59 59
65 65 65
65 65 65
65 65 65
70 70 70
71 71 71
68 68 68
69 69 69
72 72 72
69 69 69
67 67 67
66 66 66
79 79 79
68 68 68
69 69 69
67 67 67
65 65 65
62 62 62
63 63 63
63 63 63
66 66 66
62 62 62
60 60 60
61 61 61
60 60 60
53 53 53
72 72 72
158 158 158
169 169 169
171 171 171
184 184 184
190 190 190
182 182 182
185 185 185
178 178 178
162 162 162
196 196 196
196 196 196
197 197 197
197 197 197
198 198 198
198 198 198
198 198 198
197 197 197
198 198 198
198 198 198
197 197 197
194 194 194
104 104 104
59 59 59
64 64 64
59 59 59
61 61 61
57 57 57
64 64 64
66 66 66
63 63 63
70 70 70
71 71 71
70 70 70
74 74 74
73 73 73
71 71 71
72 72 72
74 74 74
68 68 68
61 61 61
70 70 70
61 61 61
66 66 66
72 72 72
74 74 74
71 71 71
69 69 69
67 67 67
65 65 65
69 69 69
65 65 65
65 65 65
63 63 63
59 59 59
54 54 54
83 83 83
181 181 181
179 179 179
184 184 184
182 182 182
170 170 170
170 170 170
168 168 168
178 178 178
195 195 195
195 195 195
196 196 196
197 197 197
197 197 197
197 197 197
197 197 197
198 198 198
198 198 198
197 197 197
198 198 198
122 122 122
65 65 65
56 56 56
71 71 71
67 67 67
53 53 53
61 61 61
67 67 67
73 73 73
67 67 67
60 60 60
58 58 58
65 65 65
63 63 63
65 65 65
66 66 66
66 66 66
65 65 65
67 67 67
64 64 64
69 69 69
73 73 73
73 73 73
70 70 70
71 71 71
70 70 70
70 70 70
70 70 70
69 69 69
64 64 64
65 65 65
63 63 63
61 61 61
61 61 61
60 60 60
58 58 58
91 91 91
183 183 183
178 178 178
172 172 172
167 167 167
169 169 169
172 172 172
180 180 180
194 194 194
195 195 195
196 196 196
196 196 196
197 197 197
197 197 197
197 197 197
196 196 196
195 195 195
198 198 198
142 142 142
67 67 67
58 58 58
61 61 61
63 63 63
54 54 54
50 50 50
62 62 62
62 62 62
68 68 68
69 69 69
69 69 69
65 65 65
68 68 68
73 73 73
68 68 68
70 70 70
69 69 69
78 78 78
79 79 79
81 81 81
80 80 80
72 72 72
76 76 76
71 71 71
74 74 74
72 72 72
66 66 66
70 70 70
70 70 70
70 70 70
66 66 66
66 66 66
67 67 67
64 64 64
63 63 63
64 64 64
54 54 54
106 106 106
185 185 185
180 180 180
174 174 174
175 175 175
179 179 179
180 180 180
194 194 194
194 194 194
195 195 195
195 195 195
194 194 194
195 195 195
195 195 195
196 196 196
196 196 196
163 163 163
67 67 67
69 69 69
62 62 62
61 61 61
57 57 57
63 63 63
61 61 61
71 71 71
75 75 75
71 71 71
72 72 72
71 71 71
74 74 74
70 70 70
68 68 68
70 70 70
68 68 68
72 72 72
72 72 72
73 73 73
71 71 71
73 73 73
74 74 74
68 68 68
73 73 73
73 73 73
74 74 74
80 80 80
72 72 72
70 70 70
75 75 75
78 78 78
74 74 74
69 69 69
67 67 67
65 65 65
64 64 64
63 63 63
54 54 54
138 138 138
180 180 180
180 180 180
180 180 180
182 182 182
182 182 182
193 193 193
193 193 193
194 194 194
194 194 194
193 193 193
194 194 194
194 194 194
196 196 196
180 180 180
75 75 75
60 60 60
64 64 64
65 65 65
68 68 68
61 61 61
64 64 64
71 71 71
76 76 76
80 80 80
78 78 78
77 77 77
76 76 76
83 83 83
93 93 93
85 85 85
90 90 90
92 92 92
85 85 85
75 75 75
74 74 74
72 72 72
77 77 77
75 75 75
71 71 71
75 75 75
75 75 75
76 76 76
74 74 74
73 73 73
74 74 74
77 77 77
73 73 73
74 74 74
68 68 68
67 67 67
63 63 63
64 64 64
60 60 60
59 59 59
67 67 67
141 141 141
177 177 177
179 179 179
176 176 176
176 176 176
190 190 190
190 190 190
191 191 191
191 191 191
189 189 189
190 190 190
191 191 191
188 188 188
83 83 83
58 58 58
59 59 59
71 71 71
71 71 71
63 63 63
59 59 59
62 62 62
72 72 72
66 66 66
67 67 67
78 78 78
74 74 74
71 71 71
75 75 75
77 77 77
70 70 70
87 87 87
99 99 99
86 86 86
77 77 77
76 76 76
72 72 72
76 76 76
75 75 75
75 75 75
80 80 80
78 78 78
75 75 75
78 78 78
78 78 78
74 74 74
82 82 82
78 78 78
75 75 75
74 74 74
76 76 76
76 76 76
76 76 76
67 67 67
67 67 67
66 66 66
60 60 60
138 138 138
173 173 173
173 173 173
174 174 174
187 187 187
187 187 187
187 187 187
188 188 188
186 186 186
190 190 190
192 192 192
106 106 106
60 60 60
67 67 67
61 61 61
74 74 74
64 64 64
57 57 57
63 63 63
68 68 68
62 62 62
69 69 69
72 72 72
81 81 81
69 69 69
74 74 74
82 82 82
79 79 79
76 76 76
81 81 81
74 74 74
87 87 87
93 93 93
90 90 90
86 86 86
89 89 89
77 77 77
82 82 82
83 83 83
83 83 83
85 85 85
74 74 74
72 72 72
87 87 87
84 84 84
87 87 87
81 81 81
76 76 76
79 79 79
71 71 71
74 74 74
74 74 74
74 74 74
74 74 74
62 62 62
63 63 63
147 147 147
167 167 167
167 167 167
183 183 183
183 183 183
184 184 184
184 184 184
184 184 184
188 188 188
139 139 139
63 63 63
69 69 69
69 69 69
69 69 69
67 67 67
66 66 66
69 69 69
67 67 67
68 68 68
77 77 77
87 87 87
91 91 91
75 75 75
82 82 82
78 78 78
70 70 70
75 75 75
83 83 83
78 78 78
73 73 73
87 87 87
90 90 90
103 103 103
91 91 91
78 78 78
86 86 86
83 83 83
80 80 80
80 80 80
83 83 83
73 73 73
77 77 77
92 92 92
78 78 78
83 83 83
71 71 71
64 64 64
64 64 64
63 63 63
68 68 68
68 68 68
65 65 65
71 71 71
64 64 64
73 73 73
85 85 85
153 153 153
166 166 166
178 178 178
178 178 178
180 180 180
181 181 181
182 182 182
177 177 177
66 66 66
74 74 74
73 73 73
74 74 74
76 76 76
67 67 67
64 64 64
66 66 66
78 78 78
73 73 73
81 81 81
89 89 89
86 86 86
79 79 79
80 80 80
77 77 77
76 76 76
82 82 82
86 86 86
78 78 78
76 76 76
75 75 75
75 75 75
75 75 75
65 65 65
72 72 72
82 82 82
75 75 75
70 70 70
80 80 80
84 84 84
83 83 83
87 87 87
83 83 83
81 81 81
78 78 78
73 73 73
75 75 75
71 71 71
77 77 77
78 78 78
69 69 69
76 76 76
69 69 69
67 67 67
63 63 63
54 54 54
70 70 70
161 161 161
164 164 164
164 164 164
166 166 166
170 170 170
169 169 169
80 80 80
56 56 56
67 67 67
74 74 74
80 80 80
73 73 73
62 62 62
72 72 72
78 78 78
74 74 74
88 88 88
86 86 86
74 74 74
74 74 74
79 79 79
67 67 67
74 74 74
77 77 77
78 78 78
77 77 77
75 75 75
81 81 81
83 83 83
82 82 82
74 74 74
81 81 81
84 84 84
80 80 80
85 85 85
85 85 85
95 95 95
90 90 90
87 87 87
81 81 81
70 70 70
66 66 66
74 74 74
76 76 76
79 79 79
79 79 79
83 83 83
71 71 71
72 72 72
72 72 72
74 74 74
63 63 63
67 67 67
60 60 60
71 71 71
90 90 90
160 160 160
161 161 161
161 161 161
172 172 172
74 74 74
64 64 64
64 64 64
72 72 72
79 79 79
66 66 66
71 71 71
65 65 65
63 63 63
73 73 73
68 68 68
69 69 69
65 65 65
72 72 72
77 77 77
76 76 76
75 75 75
84 84 84
86 86 86
87 87 87
86 86 86
86 86 86
89 89 89
85 85 85
78 78 78
91 91 91
88 88 88
95 95 95
101 101 101
105 105 105
96 96 96
99 99 99
93 93 93
97 97 97
91 91 91
92 92 92
82 82 82
89 89 89
84 84 84
86 86 86
84 84 84
92 92 92
83 83 83
80 80 80
77 77 77
79 79 79
85 85 85
81 81 81
81 81 81
79 79 79
76 76 76
160 160 160
166 166 166
173 173 173
101 101 101
60 60 60
74 74 74
73 73 73
79 79 79
83 83 83
77 77 77
68 68 68
74 74 74
80 80 80
84 84 84
85 85 85
89 89 89
80 80 80
83 83 83
85 85 85
83 83 83
86 86 86
91 91 91
83 83 83
91 91 91
89 89 89
84 84 84
85 85 85
88 88 88
81 81 81
89 89 89
89 89 89
88 88 88
83 83 83
87 87 87
81 81 81
83 83 83
84 84 84
90 90 90
90 90 90
91 91 91
92 92 92
90 90 90
80 80 80
77 77 77
79 79 79
88 88 88
83 83 83
76 76 76
90 90 90
75 75 75
72 72 72
62 62 62
76 76 76
70 70 70
60 60 60
166 166 166
177 177 177
117 117 117
58 58 58
65 65 65
66 66 66
68 68 68
77 77 77
73 73 73
62 62 62
66 66 66
73 73 73
74 74 74
74 74 74
77 77 77
80 80 80
75 75 75
96 96 96
86 86 86
80 80 80
84 84 84
83 83 83
90 90 90
92 92 92
89 89 89
80 80 80
88 88 88
82 82 82
83 83 83
90 90 90
102 102 102
80 80 80
82 82 82
77 77 77
79 79 79
85 85 85
86 86 86
86 86 86
84 84 84
76 76 76
81 81 81
77 77 77
80 80 80
81 81 81
77 77 77
80 80 80
72 72 72
73 73 73
70 70 70
70 70 70
65 65 65
79 79 79
75 75 75
70 70 70
71 71 71
185 185 185
145 145 145
52 52 52
68 68 68
72 72 72
78 78 78
82 82 82
74 74 74
71 71 71
68 68 68
70 70 70
73 73 73
76 76 76
79 79 79
76 76 76
74 74 74
71 71 71
74 74 74
75 75 75
67 67 67
73 73 73
75 75 75
78 78 78
76 76 76
85 85 85
96 96 96
85 85 85
93 93 93
93 93 93
88 88 88
83 83 83
76 76 76
72 72 72
77 77 77
83 83 83
84 84 84
83 83 83
83 83 83
89 89 89
86 86 86
78 78 78
77 77 77
76 76 76
74 74 74
74 74 74
75 75 75
74 74 74
74 74 74
76 76 76
71 71 71
75 75 75
74 74 74
82 82 82
82 82 82
87 87 87
178 178 178
61 61 61
67 67 67
77 77 77
76 76 76
82 82 82
85 85 85
76 76 76
69 69 69
66 66 66
68 68 68
64 64 64
73 73 73
74 74 74
77 77 77
82 82 82
78 78 78
83 83 83
86 86 86
98 98 98
91 91 91
87 87 87
83 83 83
89 89 89
82 82 82
93 93 93
84 84 84
87 87 87
106 106 106
93 93 93
89 89 89
89 89 89
84 84 84
90 90 90
92 92 92
93 93 93
93 93 93
89 89 89
89 89 89
88 88 88
86 86 86
86 86 86
81 81 81
91 91 91
91 91 91
88 88 88
81 81 81
86 86 86
83 83 83
98 98 98
101 101 101
85 85 85
77 77 77
79 79 79
77 77 77
86 86 86
70 70 70
75 75 75
84 84 84
92 92 92
91 91 91
81 81 81
77 77 77
84 84 84
74 74 74
80 80 80
94 94 94
82 82 82
87 87 87
82 82 82
82 82 82
95 95 95
108 108 108
89 89 89
87 87 87
84 84 84
98 98 98
105 105 105
115 115 115
105 105 105
82 82 82
94 94 94
109 109 109
93 93 93
104 104 104
106 106 106
95 95 95
94 94 94
100 100 100
96 96 96
88 88 88
88 88 88
88 88 88
86 86 86
89 89 89
86 86 86
81 81 81
85 85 85
102 102 102
109 109 109
97 97 97
87 87 87
91 91 91
101 101 101
83 83 83
77 77 77
76 76 76
78 78 78
76 76 76
77 77 77
79 79 79
87 87 87
88 88 88
98 98 98
99 99 99
92 92 92
67 67 67
67 67 67
70 70 70
75 75 75
81 81 81
89 89 89
82 82 82
85 85 85
80 80 80
94 94 94
98 98 98
91 91 91
96 96 96
107 107 107
116 116 116
106 106 106
100 100 100
108 108 108
100 100 100
86 86 86
112 112 112
105 105 105
95 95 95
93 93 93
92 92 92
94 94 94
99 99 99
96 96 96
93 93 93
91 91 91
90 90 90
102 102 102
87 87 87
85 85 85
96 96 96
94 94 94
88 88 88
99 99 99
100 100 100
91 91 91
93 93 93
83 83 83
80 80 80
83 83 83
80 80 80
81 81 81
81 81 81
79 79 79
78 78 78
87 87 87
85 85 85
89 89 89
91 91 91
86 86 86
80 80 80
70 70 70
66 66 66
70 70 70
80 80 80
76 76 76
81 81 81
84 84 84
79 79 79
87 87 87
78 78 78
86 86 86
92 92 92
82 82 82
109 109 109
90 90 90
97 97 97
87 87 87
86 86 86
95 95 95
102 102 102
99 99 99
87 87 87
104 104 104
103 103 103
94 94 94
98 98 98
89 89 89
85 85 85
90 90 90
95 95 95
87 87 87
91 91 91
95 95 95
88 88 88
92 92 92
79 79 79
84 84 84
93 93 93
96 96 96
90 90 90
91 91 91
84 84 84
91 91 91
91 91 91
95 95 95
95 95 95
92 92 92
83 83 83
100 100 100
86 86 86
89 89 89
94 94 94
95 95 95
89 89 89
82 82 82
90 90 90
92 92 92
77 77 77
73 73 73
77 77 77
77 77 77
91 91 91
99 99 99
99 99 99
87 87 87
90 90 90
80 80 80
81 81 81
90 90 90
88 88 88
93 93 93
90 90 90
94 94 94
98 98 98
101 101 101
94 94 94
92 92 92
97 97 97
102 102 102
103 103 103
94 94 94
105 105 105
102 102 102
85 85 85
92 92 92
90 90 90
97 97 97
93 93 93
90 90 90
92 92 92
90 90 90
90 90 90
94 94 94
88 88 88
89 89 89
92 92 92
87 87 87
86 86 86
88 88 88
91 91 91
81 81 81
85 85 85
88 88 88
89 89 89
80 80 80
86 86 86
87 87 87
85 85 85
85 85 85
104 104 104
91 91 91
84 84 84
76 76 76
82 82 82
91 91 91
93 93 93
90 90 90
97 97 97
90 90 90
91 91 91
93 93 93
94 94 94
86 86 86
94 94 94
85 85 85
87 87 87
88 88 88
89 89 89
91 91 91
90 90 90
99 99 99
108 108 108
101 101 101
95 95 95
87 87 87
96 96 96
87 87 87
94 94 94
95 95 95
95 95 95
92 92 92
99 99 99
90 90 90
91 91 91
87 87 87
85 85 85
87 87 87
93 93 93
95 95 95
91 91 91
92 92 92
89 89 89
92 92 92
91 91 91
90 90 90
91 91 91
96 96 96
98 98 98
103 103 103
58 58 58
69 69 69
56 56 56
52 52 52
52 52 52
56 56 56
57 57 57
55 55 55
60 60 60
62 62 62
62 62 62
75 75 75
60 60 60
75 75 75
68 68 68
78 78 78
69 69 69
69 69 69
84 84 84
93 93 93
112 112 112
116 116 116
113 113 113
128 128 128
140 140 140
133 133 133
130 130 130
131 131 131
131 131 131
126 126 126
137 137 137
146 146 146
136 136 136
148 148 148
152 152 152
159 159 159
157 157 157
133 133 133
124 124 124
118 118 118
145 145 145
148 148 148
165 165 165
171 171 171
175 175 175
175 175 175
176 176 176
182 182 182
182 182 182
179 179 179
175 175 175
174 174 174
177 177 177
173 173 173
169 169 169
76 76 76
74 74 74
77 77 77
68 68 68
79 79 79
73 73 73
66 66 66
66 66 66
71 71 71
62 62 62
63 63 63
61 61 61
71 71 71
80 80 80
74 74 74
56 56 56
63 63 63
66 66 66
87 87 87
69 69 69
73 73 73
70 70 70
66 66 66
126 126 126
156 156 156
152 152 152
144 144 144
147 147 147
154 154 154
155 155 155
149 149 149
148 148 148
149 149 149
148 148 148
151 151 151
156 156 156
153 153 153
152 152 152
147 147 147
145 145 145
155 155 155
161 161 161
169 169 169
168 168 168
158 158 158
145 145 145
153 153 153
158 158 158
159 159 159
137 137 137
146 146 146
149 149 149
150 150 150
146 146 146
137 137 137
91 91 91
107 107 107
120 120 120
122 122 122
113 113 113
94 94 94
116 116 116
125 125 125
129 129 129
127 127 127
131 131 131
133 133 133
136 136 136
143 143 143
144 144 144
146 146 146
143 143 143
143 143 143
140 140 140
143 143 143
140 140 140
139 139 139
146 146 146
143 143 143
149 149 149
129 129 129
133 133 133
139 139 139
132 132 132
132 132 132
138 138 138
137 137 137
138 138 138
139 139 139
145 145 145
145 145 145
147 147 147
149 149 149
145 145 145
152 152 152
147 147 147
145 145 145
135 135 135
147 147 147
152 152 152
145 145 145
146 146 146
144 144 144
148 148 148
147 147 147
147 147 147
151 151 151
157 157 157
160 160 160
162 162 162
