P3
55 50
255
0 187 166
0 188 166
0 188 164
0 192 164
0 197 162
0 194 158
0 187 151
0 185 153
0 180 147
0 176 144
0 180 147
0 182 150
0 179 147
0 174 143
0 168 137
0 176 148
0 179 147
0 185 156
0 182 156
0 164 143
0 164 147
0 165 152
0 158 150
0 154 151
0 156 151
0 158 155
0 158 154
0 160 156
0 163 161
0 161 161
0 161 160
0 161 163
0 162 161
0 162 162
0 161 159
0 163 161
0 162 157
0 165 160
0 169 162
0 167 161
0 169 161
0 165 160
0 163 162
0 158 160
0 158 161
0 158 161
0 158 160
0 160 161
0 165 160
0 170 161
0 173 162
0 169 157
0 169 155
0 174 160
0 172 161
0 182 163
0 185 166
0 186 163
0 187 161
0 193 163
0 193 160
0 185 154
0 186 155
0 184 155
0 177 148
0 179 152
0 183 154
0 188 157
0 187 155
0 187 153
0 189 157
0 184 153
0 188 162
0 174 156
0 168 153
0 167 153
0 175 163
0 164 153
0 160 153
0 157 148
0 150 144
0 153 143
0 162 154
0 160 154
0 158 155
0 161 157
0 158 156
0 156 154
0 157 155
0 160 158
0 164 162
0 165 160
0 167 162
0 167 162
0 166 161
0 164 160
0 164 162
0 168 166
0 158 158
0 155 152
0 164 159
0 169 160
0 170 158
0 178 162
0 181 164
0 179 164
0 178 163
0 178 165
0 179 166
0 175 163
0 184 163
0 185 164
0 183 164
0 180 161
0 182 160
0 182 161
0 182 159
0 182 160
0 184 158
0 179 156
0 176 157
0 177 160
0 182 162
0 181 161
0 183 161
0 185 166
0 179 162
0 175 161
0 171 158
0 170 159
0 171 155
0 168 154
0 163 149
0 161 148
0 160 144
0 163 147
0 168 151
0 163 147
0 161 148
0 159 149
0 161 151
0 158 152
0 157 150
0 160 155
0 163 159
0 164 160
0 167 162
0 167 162
0 166 162
0 165 161
0 164 159
0 160 158
0 157 157
0 157 159
0 155 153
0 161 154
0 175 161
0 182 165
0 181 162
0 178 160
0 178 162
0 181 165
0 181 162
0 181 162
0 176 158
0 199 168
0 198 169
0 191 165
0 185 163
0 181 160
0 180 160
0 181 159
0 187 162
0 192 164
0 189 161
0 184 161
0 184 165
0 182 162
0 178 159
0 181 164
0 182 165
0 179 161
0 177 161
0 171 158
0 170 158
0 175 157
0 172 153
0 167 148
0 170 150
0 173 149
0 178 151
0 184 154
0 181 152
0 175 148
0 172 150
0 167 148
0 163 147
0 177 154
0 178 157
0 172 155
0 174 162
0 176 164
0 170 161
0 166 157
0 165 158
0 163 156
0 159 153
0 155 151
0 154 148
0 155 147
0 163 152
0 178 162
0 179 163
0 172 160
0 172 160
0 172 161
0 177 166
0 174 162
0 172 160
0 171 160
0 198 169
0 197 170
0 195 168
0 192 168
0 188 163
0 186 161
0 186 160
0 195 167
0 199 166
0 194 161
0 195 162
0 191 162
0 188 164
0 184 162
0 187 166
0 189 168
0 184 164
0 182 160
0 188 162
0 189 161
0 185 157
0 180 152
0 178 153
0 179 154
0 178 152
0 187 160
0 194 160
0 196 161
0 192 158
0 187 155
0 178 149
0 178 148
0 181 150
0 182 150
0 190 156
0 194 160
0 190 157
0 185 155
0 172 149
0 168 149
0 167 149
0 165 147
0 167 147
0 173 153
0 182 158
0 185 164
0 175 162
0 167 156
0 170 161
0 170 161
0 170 162
0 171 163
0 167 161
0 168 163
0 166 161
0 191 164
0 191 166
0 188 163
0 188 163
0 188 162
0 193 164
0 198 166
0 198 165
0 201 167
0 198 166
0 199 166
0 199 167
0 196 166
0 196 167
0 197 168
0 192 164
0 192 160
0 194 160
0 196 159
0 200 161
0 194 157
0 190 155
0 190 153
0 188 156
0 183 151
0 185 155
0 190 159
0 189 158
0 192 159
0 190 157
0 186 155
0 183 152
0 189 156
0 190 157
0 192 158
0 195 161
0 190 154
0 193 159
0 181 150
0 175 147
0 176 146
0 179 150
0 190 158
0 197 166
0 195 166
0 184 161
0 168 156
0 170 162
0 169 161
0 168 160
0 169 164
0 168 163
0 167 161
0 165 159
0 164 159
0 192 166
0 191 165
0 195 166
0 197 166
0 195 162
0 202 169
0 204 169
0 201 164
0 204 166
0 207 169
0 203 165
0 202 166
0 205 164
0 203 166
0 195 162
0 194 162
0 197 163
0 199 162
0 197 158
0 202 162
0 198 160
0 199 161
0 198 159
0 195 156
0 197 157
0 201 162
0 199 159
0 195 158
0 199 162
0 192 158
0 192 159
0 192 161
0 198 164
0 196 164
0 190 157
0 192 161
0 191 156
0 196 162
0 196 160
0 193 158
0 193 159
0 196 163
0 192 164
0 186 163
0 182 163
0 167 155
0 164 155
0 165 160
0 165 159
0 166 161
0 165 160
0 163 161
0 162 159
0 162 159
0 163 158
0 190 164
0 192 166
0 196 169
0 195 168
0 193 166
0 192 165
0 193 167
0 193 167
0 197 167
0 199 167
0 201 168
0 198 165
0 195 163
0 193 163
0 195 164
0 197 166
0 191 160
0 192 161
0 191 159
0 196 162
0 202 161
0 202 161
0 201 162
0 199 160
0 199 161
0 201 163
0 196 161
0 198 161
0 199 160
0 202 163
0 202 164
0 194 160
0 194 159
0 198 167
0 192 161
0 193 166
0 186 161
0 183 162
0 179 160
0 177 160
0 181 162
0 179 161
0 177 159
0 183 164
0 180 159
0 170 151
0 172 160
0 164 157
0 164 160
0 161 161
0 161 162
0 157 160
0 156 159
0 157 160
0 159 158
0 179 157
0 183 161
0 185 160
0 185 160
0 184 159
0 183 158
0 185 160
0 187 162
0 185 161
0 185 161
0 186 163
0 185 162
0 188 164
0 185 161
0 186 163
0 184 161
0 182 160
0 182 160
0 184 160
0 186 162
0 188 161
0 188 162
0 193 162
0 196 166
0 196 164
0 200 170
0 198 169
0 135 112
0 72 54
0 152 134
0 191 166
0 189 160
0 188 161
0 191 165
0 190 164
0 187 165
0 183 163
0 178 162
0 178 161
0 177 162
0 179 165
0 174 161
0 172 156
0 179 162
0 185 159
0 183 157
0 177 160
0 168 157
0 163 154
0 163 159
0 162 158
0 156 156
0 155 158
0 154 157
0 160 159
0 175 156
0 177 158
0 179 157
0 181 159
0 180 158
0 180 158
0 181 159
0 182 160
0 180 158
0 181 159
0 180 161
0 179 160
0 180 161
0 179 162
0 177 160
0 174 159
0 174 161
0 174 161
0 177 160
0 182 165
0 183 162
0 185 163
0 187 162
0 191 164
0 194 165
0 196 170
0 158 143
0 34 28
0 30 28
0 36 33
0 148 132
0 183 162
0 182 161
0 181 160
0 181 162
0 182 165
0 180 161
0 175 161
0 174 160
0 173 163
0 172 160
0 166 157
0 165 156
0 168 158
0 176 161
0 173 159
0 174 159
0 165 156
0 156 148
0 154 152
0 145 142
0 147 146
0 154 155
0 154 157
0 154 157
0 175 156
0 177 158
0 179 157
0 180 158
0 180 158
0 180 158
0 181 159
0 184 162
0 185 161
0 184 162
0 183 161
0 181 162
0 182 164
0 179 163
0 177 160
0 174 159
0 173 160
0 175 159
0 177 160
0 179 160
0 180 159
0 184 164
0 189 167
0 188 166
0 187 165
0 169 154
0 49 44
0 32 35
0 28 33
0 31 34
0 40 36
0 154 145
0 188 168
0 182 160
0 181 162
0 178 163
0 176 160
0 173 162
0 173 161
0 168 160
0 166 157
0 165 158
0 166 157
0 168 160
0 172 160
0 170 160
0 165 159
0 158 155
0 154 152
0 153 155
0 152 154
0 150 155
0 152 154
0 153 155
0 152 155
0 176 154
0 177 155
0 179 156
0 180 157
0 181 157
0 182 158
0 185 159
0 188 162
0 188 162
0 186 160
0 188 162
0 187 163
0 188 163
0 184 164
0 180 162
0 177 161
0 176 159
0 178 161
0 181 164
0 179 162
0 181 162
0 185 166
0 189 166
0 188 168
0 177 161
0 76 68
0 38 39
0 35 42
0 35 40
0 33 38
0 35 40
0 51 48
0 162 145
0 190 164
0 194 168
0 191 165
0 188 162
0 185 166
0 178 161
0 170 157
0 170 158
0 170 158
0 171 160
0 171 160
0 172 160
0 166 157
0 161 156
0 157 155
0 160 154
0 160 156
0 159 155
0 156 155
0 154 151
0 157 154
0 150 146
0 175 152
0 177 154
0 179 156
0 181 158
0 182 155
0 182 155
0 183 157
0 185 159
0 184 158
0 184 158
0 183 160
0 183 160
0 184 159
0 182 160
0 174 158
0 173 159
0 173 156
0 178 161
0 181 166
0 177 162
0 180 161
0 185 166
0 188 166
0 185 169
0 88 81
0 41 41
0 36 39
0 35 41
0 38 44
0 36 44
0 36 41
0 36 35
0 54 43
0 178 156
0 201 171
0 193 161
0 195 163
0 186 160
0 176 155
0 171 154
0 176 157
0 177 160
0 177 160
0 173 160
0 165 154
0 159 152
0 157 152
0 157 153
0 160 155
0 157 154
0 154 151
0 153 150
0 157 150
0 149 143
0 138 137
0 177 152
0 177 152
0 178 153
0 179 154
0 177 153
0 176 152
0 179 156
0 180 157
0 178 155
0 178 157
0 177 156
0 175 159
0 175 158
0 174 158
0 171 158
0 171 158
0 172 156
0 175 159
0 174 158
0 174 158
0 176 160
0 181 165
0 185 169
0 110 100
0 46 42
0 42 46
0 35 40
0 36 43
0 38 44
0 40 46
0 44 49
0 44 47
0 42 43
0 63 55
0 174 155
0 185 158
0 195 161
0 194 160
0 185 151
0 183 152
0 185 155
0 184 158
0 183 162
0 168 152
0 160 146
0 161 152
0 150 144
0 144 141
0 144 140
0 145 142
0 153 148
0 148 145
0 150 143
0 139 135
0 137 135
0 176 148
0 177 149
0 179 153
0 179 153
0 179 153
0 178 152
0 180 154
0 180 156
0 178 153
0 175 155
0 175 157
0 173 157
0 174 155
0 173 154
0 173 156
0 173 156
0 173 157
0 174 158
0 174 158
0 174 158
0 175 157
0 178 164
0 129 120
0 44 41
0 48 49
0 40 43
0 38 43
0 39 44
0 35 40
0 43 48
0 43 48
0 43 48
0 45 47
0 42 41
0 64 58
0 161 148
0 182 159
0 185 158
0 177 152
0 183 156
0 197 164
0 189 158
0 177 156
0 153 139
0 147 137
0 142 137
0 139 137
0 137 136
0 139 136
0 146 141
0 156 148
0 154 147
0 149 140
0 139 133
0 140 135
0 175 145
0 178 148
0 178 149
0 178 149
0 178 148
0 179 149
0 180 153
0 180 155
0 178 152
0 176 154
0 175 152
0 174 154
0 173 152
0 172 153
0 173 154
0 172 156
0 174 157
0 175 158
0 176 159
0 175 158
0 174 158
0 146 137
0 56 54
0 54 59
0 44 51
0 44 51
0 44 50
0 41 47
0 43 49
0 39 45
0 43 49
0 45 51
0 40 42
0 44 47
0 48 48
0 71 69
0 163 152
0 169 153
0 173 155
0 180 157
0 188 159
0 189 159
0 178 151
0 162 141
0 153 138
0 145 136
0 143 134
0 146 136
0 158 140
0 167 149
0 157 142
0 147 136
0 151 138
0 154 141
0 152 139
0 164 127
0 168 131
0 176 141
0 175 138
0 174 136
0 178 139
0 180 142
0 183 145
0 183 149
0 180 150
0 174 149
0 173 151
0 173 151
0 173 151
0 174 154
0 173 153
0 174 154
0 175 155
0 176 156
0 173 157
0 161 149
0 62 57
0 60 57
0 49 50
0 50 53
0 46 51
0 43 48
0 44 50
0 42 48
0 49 55
0 43 49
0 44 50
0 49 54
0 47 52
0 47 51
0 54 56
0 90 84
0 164 155
0 169 155
0 176 160
0 173 152
0 174 152
0 176 151
0 167 143
0 161 141
0 152 136
0 147 135
0 153 141
0 161 146
0 153 140
0 147 138
0 147 141
0 151 142
0 150 140
0 157 142
0 173 129
0 173 129
0 176 135
0 175 134
0 177 136
0 177 136
0 188 143
0 183 142
0 178 140
0 175 143
0 173 147
0 167 143
0 169 144
0 173 148
0 175 151
0 175 151
0 177 151
0 178 154
0 177 153
0 169 153
0 71 62
0 44 41
0 38 39
0 21 25
0 38 43
0 35 40
0 40 47
0 46 53
0 47 52
0 45 51
0 46 52
0 43 50
0 42 48
0 48 55
0 49 54
0 51 55
0 34 33
0 144 140
0 163 154
0 164 154
0 164 152
0 162 150
0 158 149
0 157 148
0 152 143
0 150 141
0 151 141
0 157 147
0 155 142
0 153 142
0 151 140
0 150 142
0 151 144
0 149 144
0 148 139
0 192 134
0 193 135
0 197 137
0 198 138
0 198 136
0 201 141
0 206 148
0 198 146
0 180 137
0 171 133
0 166 134
0 159 131
0 165 135
0 165 138
0 165 138
0 167 140
0 174 148
0 176 152
0 176 157
0 95 82
0 41 38
0 41 45
0 35 40
0 33 40
0 39 44
0 39 44
0 31 38
0 29 36
0 32 38
0 38 44
0 44 50
0 46 52
0 59 64
0 54 59
0 54 59
0 52 57
0 36 41
0 54 55
0 150 144
0 158 149
0 158 146
0 158 148
0 157 147
0 152 143
0 148 139
0 147 138
0 151 138
0 162 146
0 163 141
0 164 143
0 158 140
0 158 143
0 153 143
0 149 142
0 148 142
0 213 138
0 211 139
0 210 138
0 209 140
0 210 140
0 209 144
0 207 145
0 201 148
0 171 126
0 162 124
0 158 125
0 159 128
0 158 129
0 158 129
0 161 130
0 162 131
0 170 134
0 173 144
0 157 137
0 46 37
0 44 41
0 48 52
0 39 44
0 43 50
0 47 52
0 49 54
0 46 53
0 44 51
0 42 48
0 39 45
0 36 43
0 37 44
0 31 37
0 40 46
0 40 45
0 36 41
0 34 39
0 37 40
0 61 58
0 142 137
0 157 147
0 156 144
0 152 143
0 148 139
0 147 139
0 146 138
0 148 140
0 152 144
0 151 140
0 150 139
0 149 140
0 150 141
0 145 136
0 144 135
0 139 133
0 208 147
0 209 150
0 207 148
0 204 150
0 203 148
0 199 145
0 204 142
0 205 147
0 177 126
0 166 123
0 163 121
0 163 125
0 163 125
0 164 127
0 167 126
0 172 131
0 178 135
0 183 150
0 64 54
0 48 49
0 56 58
0 42 48
0 47 52
0 52 59
0 53 59
0 54 60
0 52 58
0 53 59
0 50 56
0 46 53
0 51 56
0 52 58
0 52 57
0 49 54
0 46 51
0 42 47
0 49 52
0 54 57
0 49 53
0 60 61
0 140 131
0 143 132
0 144 135
0 148 139
0 150 141
0 151 142
0 148 139
0 149 140
0 147 138
0 144 135
0 142 135
0 140 133
0 140 129
0 144 131
0 151 135
0 203 152
0 204 153
0 206 152
0 203 149
0 202 148
0 199 142
0 201 139
0 208 145
0 191 133
0 176 123
0 173 125
0 170 125
0 173 127
0 177 129
0 184 134
0 192 144
0 195 149
0 123 92
0 53 44
0 58 61
0 45 47
0 46 50
0 51 56
0 56 61
0 59 63
0 58 62
0 56 62
0 54 60
0 56 62
0 52 58
0 51 57
0 53 59
0 53 59
0 54 60
0 57 64
0 59 66
0 61 65
0 55 59
0 53 57
0 53 55
0 68 64
0 137 130
0 141 131
0 144 132
0 147 134
0 144 131
0 142 132
0 141 131
0 142 131
0 142 129
0 144 130
0 151 134
0 155 131
0 161 137
0 163 135
0 201 150
0 202 149
0 205 146
0 209 147
0 214 148
0 208 140
0 207 136
0 212 141
0 210 139
0 189 123
0 184 126
0 183 128
0 191 128
0 200 133
0 209 136
0 210 149
0 157 121
0 55 39
0 57 53
0 58 61
0 42 46
0 50 55
0 52 56
0 56 60
0 63 65
0 60 64
0 61 65
0 57 63
0 59 65
0 60 66
0 59 65
0 56 62
0 59 65
0 61 67
0 55 59
0 57 61
0 60 61
0 58 59
0 49 53
0 54 58
0 52 52
0 72 70
0 141 131
0 145 132
0 146 131
0 144 129
0 143 129
0 142 128
0 147 131
0 150 133
0 155 131
0 167 140
0 175 140
0 168 131
0 169 134
0 203 149
0 203 149
0 204 147
0 207 146
0 212 143
0 214 143
0 210 142
0 208 140
0 209 135
0 214 138
0 213 135
0 215 137
0 219 136
0 218 139
0 214 143
0 183 133
0 65 47
0 54 54
0 62 63
0 52 56
0 48 52
0 50 56
0 61 67
0 60 67
0 60 64
0 64 68
0 59 63
0 58 62
0 65 67
0 62 64
0 61 66
0 58 63
0 59 61
0 63 65
0 62 67
0 61 66
0 59 61
0 61 63
0 55 60
0 54 59
0 55 61
0 50 53
0 87 79
0 143 131
0 145 128
0 146 127
0 146 128
0 150 129
0 155 131
0 163 135
0 170 139
0 179 146
0 174 139
0 164 129
0 163 130
0 205 147
0 204 146
0 205 144
0 208 142
0 215 139
0 216 136
0 215 136
0 214 139
0 215 141
0 210 142
0 208 144
0 207 147
0 206 148
0 204 153
0 198 159
0 82 59
0 61 52
0 60 61
0 61 63
0 48 55
0 60 66
0 59 66
0 63 67
0 58 63
0 69 70
0 66 67
0 66 67
0 72 73
0 69 70
0 67 68
0 63 66
0 70 73
0 64 63
0 69 68
0 69 69
0 74 74
0 77 77
0 74 74
0 70 72
0 67 69
0 58 62
0 57 61
0 48 48
0 97 92
0 145 130
0 146 123
0 151 127
0 161 133
0 171 137
0 173 137
0 177 141
0 174 140
0 167 134
0 163 132
0 166 132
0 205 144
0 205 145
0 207 143
0 208 143
0 211 140
0 213 140
0 212 141
0 211 143
0 210 146
0 207 146
0 206 147
0 206 149
0 204 147
0 189 145
0 105 84
0 73 66
0 58 56
0 57 60
0 41 45
0 51 57
0 57 59
0 65 68
0 68 69
0 74 75
0 73 74
0 74 76
0 79 79
0 79 80
0 75 75
0 77 77
0 76 76
0 77 77
0 80 80
0 75 78
0 76 77
0 63 67
0 59 60
0 65 66
0 62 63
0 66 67
0 67 68
0 66 67
0 60 63
0 58 57
0 77 68
0 147 131
0 159 134
0 163 131
0 174 136
0 186 146
0 182 139
0 175 135
0 178 138
0 180 143
0 166 129
0 206 142
0 207 143
0 207 142
0 207 142
0 208 141
0 209 142
0 209 144
0 207 145
0 208 145
0 205 146
0 204 144
0 203 152
0 192 152
0 88 64
0 65 56
0 58 59
0 55 55
0 47 48
0 51 55
0 56 60
0 62 66
0 62 66
0 61 66
0 66 71
0 67 70
0 64 67
0 64 68
0 67 71
0 65 68
0 63 66
0 63 64
0 76 77
0 64 67
0 64 68
0 64 65
0 61 63
0 60 58
0 60 61
0 60 61
0 61 65
0 58 61
0 56 59
0 57 62
0 56 59
0 51 51
0 72 62
0 160 135
0 173 137
0 177 136
0 190 145
0 195 149
0 187 140
0 191 142
0 183 136
0 167 125
0 206 137
0 206 137
0 207 138
0 207 138
0 209 138
0 209 138
0 209 138
0 207 138
0 207 144
0 206 144
0 204 145
0 198 152
0 104 83
0 56 49
0 61 59
0 56 57
0 59 61
0 54 58
0 61 65
0 63 67
0 59 62
0 66 69
0 68 72
0 67 71
0 70 73
0 69 72
0 66 70
0 67 71
0 70 73
0 64 67
0 56 62
0 65 71
0 58 62
0 63 67
0 69 70
0 71 72
0 68 69
0 66 67
0 64 65
0 62 63
0 66 67
0 62 63
0 61 64
0 59 62
0 58 59
0 53 48
0 85 66
0 185 154
0 186 145
0 191 147
0 188 147
0 175 135
0 176 135
0 174 133
0 185 138
0 207 131
0 207 131
0 207 133
0 208 134
0 209 134
0 209 134
0 208 136
0 208 138
0 209 138
0 206 143
0 205 152
0 125 90
0 64 51
0 53 52
0 67 69
0 62 66
0 50 54
0 57 64
0 65 67
0 69 72
0 65 67
0 57 61
0 54 61
0 60 68
0 60 64
0 62 66
0 62 67
0 62 67
0 62 66
0 64 68
0 60 65
0 65 70
0 69 72
0 69 72
0 65 69
0 66 70
0 67 68
0 67 68
0 67 68
0 66 67
0 61 62
0 60 64
0 58 62
0 56 62
0 57 60
0 57 58
0 55 54
0 91 78
0 187 153
0 184 141
0 178 137
0 172 134
0 176 135
0 179 137
0 187 140
0 208 123
0 209 124
0 209 126
0 209 126
0 209 128
0 208 130
0 209 130
0 208 130
0 206 131
0 206 144
0 143 111
0 66 52
0 56 52
0 58 59
0 61 63
0 52 54
0 49 52
0 59 63
0 61 62
0 66 68
0 65 68
0 65 68
0 62 66
0 65 69
0 69 74
0 64 69
0 66 71
0 65 70
0 75 76
0 76 77
0 77 79
0 76 78
0 69 70
0 73 74
0 66 70
0 69 73
0 69 70
0 63 64
0 67 68
0 67 68
0 67 68
0 63 64
0 61 65
0 62 66
0 61 62
0 60 61
0 60 63
0 52 46
0 109 83
0 189 153
0 187 145
0 181 137
0 181 140
0 185 144
0 186 141
0 210 119
0 210 119
0 209 121
0 209 121
0 209 120
0 210 121
0 209 123
0 209 126
0 208 132
0 170 116
0 67 46
0 64 64
0 58 58
0 58 59
0 55 57
0 61 63
0 59 61
0 67 70
0 72 73
0 67 69
0 68 71
0 67 70
0 69 73
0 65 69
0 64 67
0 66 69
0 64 67
0 68 71
0 69 70
0 69 72
0 66 70
0 68 74
0 71 72
0 65 66
0 68 72
0 68 72
0 70 70
0 76 76
0 69 70
0 67 68
0 71 71
0 74 74
0 70 70
0 65 65
0 64 63
0 62 63
0 61 62
0 59 59
0 54 44
0 139 119
0 186 147
0 186 141
0 187 140
0 189 142
0 190 141
0 210 115
0 209 116
0 210 117
0 210 119
0 209 116
0 210 117
0 209 119
0 208 130
0 189 132
0 79 45
0 58 48
0 60 60
0 61 61
0 64 66
0 57 60
0 60 65
0 68 69
0 73 74
0 77 76
0 74 74
0 74 73
0 72 72
0 80 78
0 89 88
0 81 78
0 86 83
0 86 86
0 80 81
0 72 71
0 71 72
0 69 70
0 74 75
0 72 73
0 68 69
0 71 71
0 71 71
0 72 72
0 70 70
0 69 69
0 70 70
0 73 72
0 69 68
0 70 70
0 64 64
0 64 63
0 60 59
0 61 62
0 57 58
0 56 57
0 67 58
0 144 118
0 182 145
0 186 142
0 184 138
0 184 138
0 211 106
0 211 106
0 212 107
0 212 107
0 210 105
0 211 107
0 211 111
0 202 126
0 87 56
0 56 49
0 56 54
0 67 67
0 68 67
0 60 61
0 57 59
0 59 63
0 69 70
0 63 64
0 64 65
0 74 76
0 71 70
0 68 67
0 71 73
0 73 75
0 67 65
0 83 82
0 93 93
0 80 80
0 73 73
0 72 72
0 68 70
0 72 74
0 72 71
0 71 71
0 76 76
0 74 74
0 71 71
0 74 74
0 74 74
0 70 70
0 78 75
0 73 73
0 71 70
0 70 70
0 72 72
0 72 72
0 72 74
0 63 65
0 64 63
0 64 60
0 59 50
0 139 119
0 178 143
0 180 138
0 181 137
0 213 95
0 213 95
0 213 95
0 214 96
0 214 93
0 215 105
0 211 122
0 117 58
0 61 41
0 64 62
0 57 57
0 70 70
0 61 62
0 54 55
0 59 62
0 64 67
0 58 61
0 64 68
0 68 68
0 77 77
0 66 67
0 71 72
0 78 80
0 75 77
0 72 72
0 77 77
0 70 70
0 82 83
0 89 86
0 85 83
0 80 80
0 83 83
0 73 73
0 78 78
0 78 78
0 78 78
0 81 81
0 70 70
0 67 67
0 82 82
0 80 76
0 82 80
0 77 74
0 71 71
0 75 74
0 67 66
0 69 69
0 69 69
0 71 69
0 70 70
0 59 58
0 62 54
0 152 122
0 174 133
0 175 132
0 216 81
0 216 81
0 217 82
0 217 82
0 217 82
0 214 104
0 151 90
0 66 39
0 68 55
0 65 64
0 66 64
0 63 63
0 63 64
0 66 67
0 64 65
0 64 64
0 73 72
0 83 80
0 86 86
0 70 70
0 79 77
0 74 74
0 66 66
0 71 73
0 79 78
0 74 74
0 69 69
0 82 83
0 84 84
0 96 97
0 86 86
0 73 74
0 81 81
0 78 78
0 75 75
0 75 75
0 79 78
0 68 68
0 72 72
0 86 86
0 73 73
0 79 79
0 67 67
0 61 62
0 62 60
0 60 59
0 65 64
0 64 64
0 62 61
0 68 67
0 60 60
0 71 65
0 85 69
0 156 129
0 171 134
0 218 64
0 218 64
0 219 67
0 219 71
0 219 76
0 204 97
0 72 33
0 71 64
0 71 65
0 71 68
0 72 71
0 63 63
0 61 62
0 62 64
0 74 74
0 69 69
0 77 74
0 84 84
0 82 81
0 75 75
0 76 76
0 73 73
0 72 72
0 78 78
0 82 81
0 74 74
0 72 72
0 71 73
0 71 71
0 71 73
0 62 63
0 69 70
0 78 78
0 72 70
0 66 66
0 76 76
0 79 79
0 78 78
0 81 81
0 77 77
0 78 75
0 74 73
0 69 68
0 71 71
0 67 66
0 73 72
0 74 73
0 65 64
0 72 71
0 65 65
0 64 63
0 60 61
0 53 50
0 70 58
0 164 135
0 222 17
0 221 18
0 222 21
0 219 43
0 203 76
0 100 21
0 60 34
0 63 62
0 70 67
0 75 75
0 70 68
0 58 58
0 68 70
0 72 75
0 70 69
0 83 83
0 83 80
0 70 69
0 70 69
0 75 75
0 64 65
0 71 72
0 73 73
0 74 74
0 73 73
0 71 71
0 77 77
0 79 79
0 79 77
0 70 69
0 77 77
0 79 80
0 76 75
0 80 80
0 81 78
0 90 88
0 84 83
0 80 81
0 76 76
0 65 66
0 62 64
0 70 72
0 72 72
0 75 75
0 75 72
0 78 78
0 67 66
0 68 68
0 68 67
0 70 70
0 60 59
0 64 65
0 57 56
0 68 66
0 89 80
0 225 1
0 225 3
0 226 5
0 220 51
0 93 19
0 65 47
0 62 55
0 67 67
0 75 72
0 61 61
0 68 66
0 61 61
0 60 59
0 70 69
0 65 63
0 66 64
0 62 61
0 68 68
0 73 73
0 71 72
0 71 70
0 79 79
0 81 81
0 81 81
0 80 80
0 80 80
0 83 82
0 79 78
0 74 71
0 86 84
0 83 79
0 89 86
0 96 90
0 99 95
0 91 86
0 93 90
0 87 86
0 91 90
0 86 81
0 86 83
0 77 75
0 83 83
0 79 77
0 81 79
0 81 74
0 88 84
0 80 75
0 76 73
0 73 70
0 75 72
0 80 78
0 76 74
0 76 74
0 74 72
0 73 68
0 228 1
0 227 20
0 222 51
0 133 18
0 68 28
0 70 67
0 68 66
0 74 72
0 78 76
0 72 72
0 64 63
0 70 70
0 77 74
0 80 77
0 80 78
0 84 82
0 76 73
0 78 76
0 80 78
0 77 76
0 82 78
0 87 83
0 78 76
0 86 84
0 85 82
0 80 77
0 80 78
0 83 81
0 78 75
0 85 82
0 85 81
0 83 79
0 78 76
0 82 80
0 75 75
0 77 77
0 79 75
0 85 81
0 84 81
0 85 82
0 88 82
0 85 81
0 75 73
0 71 71
0 75 71
0 84 80
0 80 77
0 73 70
0 86 83
0 71 68
0 69 67
0 59 57
0 72 71
0 66 66
0 57 56
0 233 12
0 230 52
0 142 48
0 65 27
0 65 52
0 62 61
0 63 63
0 72 72
0 70 68
0 58 58
0 62 64
0 69 71
0 70 70
0 71 69
0 73 72
0 75 75
0 72 67
0 91 89
0 81 79
0 74 74
0 80 77
0 78 76
0 86 82
0 86 85
0 84 82
0 74 74
0 82 81
0 76 75
0 79 75
0 85 81
0 96 95
0 74 73
0 76 76
0 72 72
0 73 73
0 79 79
0 80 80
0 80 80
0 79 77
0 71 69
0 77 74
0 73 70
0 74 74
0 75 75
0 73 70
0 76 73
0 68 67
0 69 68
0 66 65
0 66 65
0 60 60
0 74 74
0 71 68
0 66 63
0 68 66
0 234 73
0 180 59
0 62 19
0 64 61
0 68 64
0 74 70
0 77 75
0 69 67
0 67 66
0 64 64
0 66 66
0 69 71
0 73 71
0 76 74
0 72 72
0 70 70
0 68 66
0 70 70
0 71 71
0 63 65
0 70 68
0 71 70
0 73 73
0 71 69
0 80 76
0 92 86
0 80 76
0 88 84
0 89 83
0 83 79
0 78 76
0 71 72
0 68 68
0 73 73
0 79 76
0 80 76
0 78 76
0 78 76
0 84 80
0 82 78
0 75 70
0 74 71
0 73 70
0 70 69
0 71 68
0 72 69
0 71 68
0 71 68
0 73 70
0 67 64
0 71 68
0 69 67
0 79 72
0 78 72
0 82 78
0 199 121
0 76 16
0 70 47
0 73 69
0 72 66
0 77 73
0 80 76
0 71 69
0 66 64
0 64 62
0 64 64
0 60 60
0 69 68
0 70 69
0 72 72
0 77 77
0 75 70
0 79 75
0 82 76
0 93 88
0 86 82
0 82 78
0 78 76
0 84 82
0 78 72
0 89 83
0 80 76
0 82 78
0 101 95
0 87 83
0 84 79
0 84 80
0 80 76
0 85 81
0 88 82
0 88 83
0 89 82
0 85 78
0 84 79
0 83 78
0 81 77
0 81 77
0 76 72
0 86 82
0 86 81
0 83 78
0 76 72
0 81 77
0 79 72
0 94 87
0 96 90
0 80 75
0 72 68
0 74 72
0 73 70
0 88 66
0 70 53
0 72 63
0 79 73
0 87 79
0 86 78
0 76 72
0 72 70
0 82 76
0 71 66
0 76 70
0 89 84
0 78 74
0 83 79
0 78 74
0 78 72
0 90 84
0 102 97
0 85 78
0 82 77
0 81 72
0 93 85
0 100 89
0 109 100
0 101 91
0 76 69
0 88 81
0 103 96
0 87 80
0 98 91
0 100 93
0 89 82
0 89 83
0 95 89
0 90 86
0 82 78
0 84 78
0 84 78
0 81 77
0 84 80
0 83 76
0 77 71
0 81 74
0 96 89
0 103 94
0 91 82
0 82 74
0 87 80
0 96 88
0 79 72
0 73 67
0 72 68
0 74 70
0 72 68
0 73 67
0 74 66
0 81 74
0 82 73
0 91 83
0 93 84
0 86 81
0 63 59
0 62 62
0 66 65
0 70 70
0 77 73
0 84 80
0 79 72
0 81 75
0 76 69
0 90 83
0 93 85
0 85 78
0 92 82
0 100 92
0 111 99
0 100 89
0 95 84
0 102 93
0 94 87
0 80 73
0 106 97
0 98 90
0 91 81
0 87 80
0 86 81
0 88 83
0 94 86
0 91 85
0 88 82
0 86 80
0 84 77
0 97 89
0 82 77
0 79 76
0 91 85
0 88 83
0 82 77
0 93 88
0 96 86
0 85 78
0 88 80
0 78 72
0 76 70
0 79 73
0 76 70
0 77 71
0 78 71
0 76 69
0 75 68
0 83 73
0 79 70
0 83 76
0 85 78
0 81 73
0 76 69
0 65 63
0 61 61
0 67 64
0 76 73
0 73 68
0 77 73
0 81 74
0 75 69
0 83 77
0 73 68
0 82 75
0 88 81
0 77 69
0 103 96
0 86 76
0 91 84
0 83 76
0 80 76
0 89 82
0 96 89
0 93 86
0 81 74
0 99 88
0 96 88
0 88 79
0 92 85
0 84 78
0 80 74
0 84 79
0 87 83
0 82 76
0 85 80
0 89 84
0 82 77
0 87 81
0 75 68
0 79 73
0 88 82
0 92 82
0 84 77
0 86 78
0 79 73
0 85 78
0 85 78
0 89 82
0 89 82
0 86 79
0 77 70
0 95 84
0 81 73
0 83 76
0 90 80
0 89 80
0 84 76
0 77 69
0 85 77
0 88 81
0 75 68
0 70 65
0 74 69
0 73 67
0 87 80
0 93 86
0 93 86
0 81 76
0 86 79
0 76 70
0 77 70
0 86 79
0 83 75
0 88 80
0 85 79
0 89 83
0 92 85
0 95 88
0 88 81
0 86 79
0 92 81
0 97 86
0 98 87
0 89 78
0 99 88
0 97 86
0 79 72
0 86 81
0 84 77
0 91 84
0 87 82
0 84 79
0 87 81
0 84 79
0 84 77
0 88 81
0 82 75
0 83 76
0 86 81
0 81 76
0 81 75
0 83 77
0 86 78
0 76 68
0 80 72
0 82 75
0 85 75
0 76 69
0 82 75
0 83 76
0 80 74
0 81 71
0 98 91
0 88 79
0 80 74
0 73 66
0 78 74
0 86 80
0 87 82
0 85 79
0 92 86
0 85 77
0 86 78
0 89 82
0 90 83
0 81 75
0 89 83
0 81 74
0 82 76
0 83 77
0 83 78
0 86 78
0 84 77
0 93 84
0 101 93
0 96 85
0 89 80
0 83 73
0 90 83
0 82 74
0 88 81
0 89 80
0 88 80
0 86 77
0 93 84
0 84 77
0 85 78
0 82 74
0 80 72
0 81 74
0 87 80
0 90 79
0 86 75
0 86 77
0 83 74
0 87 76
0 85 76
0 84 75
0 84 76
0 91 79
0 92 79
0 98 83
0 56 52
0 66 64
0 54 52
0 49 48
0 50 48
0 53 52
0 54 53
0 51 51
0 57 55
0 59 57
0 59 56
0 72 69
0 58 52
0 72 67
0 64 61
0 73 71
0 66 63
0 66 61
0 80 74
0 88 80
0 107 96
0 111 97
0 107 92
0 122 104
0 134 112
0 127 103
0 124 100
0 125 101
0 125 103
0 120 98
0 131 106
0 139 115
0 131 104
0 143 114
0 147 117
0 154 122
0 153 122
0 128 101
0 119 96
0 113 90
0 140 113
0 144 111
0 159 125
0 165 128
0 171 130
0 171 128
0 171 129
0 177 135
0 178 133
0 175 132
0 170 128
0 168 128
0 171 131
0 167 127
0 164 122
0 73 66
0 71 64
0 74 67
0 65 58
0 75 68
0 70 63
0 63 58
0 63 60
0 70 62
0 60 54
0 61 55
0 58 53
0 69 62
0 77 70
0 72 65
0 53 48
0 61 57
0 64 58
0 83 77
0 65 58
0 69 62
0 65 57
0 63 48
0 121 101
0 152 119
0 146 112
0 139 104
0 142 109
0 148 114
0 149 115
0 144 109
0 143 108
0 143 109
0 142 108
0 145 111
0 150 116
0 147 113
0 146 112
0 140 108
0 139 105
0 149 113
0 155 118
0 164 125
0 163 124
0 154 114
0 141 101
0 147 110
0 151 114
0 153 116
0 131 94
0 140 103
0 143 106
0 144 108
0 140 106
0 131 97
0 88 73
0 103 87
0 116 94
0 118 96
0 110 90
0 90 71
0 110 91
0 119 97
0 123 98
0 121 95
0 123 100
0 125 100
0 130 100
0 137 106
0 137 106
0 139 108
0 138 106
0 138 106
0 133 104
0 136 107
0 134 104
0 133 103
0 139 110
0 137 106
0 145 111
0 125 91
0 127 97
0 132 105
0 127 98
0 126 98
0 133 103
0 131 101
0 133 101
0 133 102
0 140 105
0 139 105
0 142 105
0 143 109
0 139 105
0 144 113
0 141 107
0 139 105
0 129 95
0 141 107
0 146 110
0 139 103
0 140 104
0 138 102
0 142 106
0 141 105
0 141 104
0 145 108
0 151 111
0 154 114
0 156 116
